<svg xmlns="http://www.w3.org/2000/svg" xmlns:xlink="http://www.w3.org/1999/xlink" width="1226" height="864" xmlns:v="https://vecta.io/nano"><style><![CDATA[.B{fill:#263238}.C{fill:#2f4aca}.D{fill:#ffbe9d}.E{fill:#eb996e}.F{fill:#455a64}.G{fill:#ebebeb}.H{fill:#fafafa}]]></style><defs><clipPath id="A"><path transform="translate(-5396 336)" fill="none" stroke="#707070" stroke-width="1" d="M0 0h1226v864H0z"/></clipPath><linearGradient id="B" x1=".825" y1=".477" x2="-.111" y2=".401"><stop offset="0" stop-color="#6e43fd"/><stop offset="1" stop-color="#ffa8b9"/></linearGradient><filter id="C" x="-129.16" y="-221.644" width="1455.428" height="1289.247" filterUnits="userSpaceOnUse"><feOffset dy="27"/><feGaussianBlur stdDeviation="23" result="A"/><feFlood flood-color="#5b00d8" flood-opacity=".2"/><feComposite operator="in" in2="A"/><feComposite in="SourceGraphic"/></filter><linearGradient id="D" x1=".5" x2=".5" y2="1"><stop offset="0" stop-color="#263238"/></linearGradient><path id="E" d="M-4566.3 933.234c0 .162-44.3.3-98.924.3s-98.925-.135-98.925-.3 44.284-.3 98.925-.3l98.924.3z"/><path id="F" d="M-4638.611 755.506c0 .067-17.994.121-40.189.121s-40.189 0-40.189-.121 17.994-.121 40.189-.121l40.189.121z"/></defs><g transform="translate(5396 -336)" clip-path="url(#A)"><g transform="translate(-5396 336)" filter="url(#C)"><path d="M-112.117-173.614C267.493-349.543,489.242,215.3,463.015,488.6S296.308,891.617,133.31,891.617s-246.994,17.926-292.321-224.274S-491.728,2.314-112.117-173.614Z" transform="matrix(-.41 .91 -.91 -.41 943.82 462.54)" fill="url(#B)"/></g><g class="C"><path d="M-4323.461 898.56a73.77 73.77 0 0 1 70.345-19.3 128.14 128.14 0 0 1-71.18 22.232m24.701-87.421c-2.936-20.728 5.118-44.041 20.633-59.112.512 20.539-8.081 43.664-20.633 59.112"/><path d="M-4312.012 853.239a110.64 110.64 0 0 1 50.829-48.58c-6.926 24.298-26.436 42.961-51.018 48.8m-2.384 7.322c12.525.364 25.2-.081 37.307-3.286s23.7-9.361 31.758-18.95a124.65 124.65 0 0 0-68.877 21.024m6.169-23.667c-6.357-23.825-16.835-40.3-35.556-53.644-2.966 24.195 12.117 46.95 35.556 53.644m-47.261 41.081c-.088-14.209 8.359-27.084 21.428-32.661-1.051 12.3-10.775 26.533-21.428 32.661m-5.979-20.081a52.53 52.53 0 0 0-34.412-44.822c4.323 19.906 15.825 36.472 34.411 44.822m9.011 35.637c-4.4-6.317-11.61-10.249-19.071-12.2s-15.246-2.114-22.9-2.276c10.619 11.513 25.736 17.815 41.388 17.253m9.552 47.985c-29.127-8.989-60.293 5.776-71.786 34.008 26.074-4.956 51.813-16.539 71.786-34.007m28.606-17.644c-4.337 12.808-3.5 28.283 6.128 39.314 3.882-13.365 1.638-27.764-6.128-39.314m16.917-7.111c1.434 16.773 11.518 31.58 26.6 39.058a3.03 3.03 0 0 0 2.357.391c1.172-.485 1.347-2.088 1.131-3.34-1.886-16.4-14.034-32.324-30.088-36.135m11.045-1.657a39.5 39.5 0 0 0 57.712.3c-18.344-2.007-39.516-3.34-57.712-.3"/></g><g class="B"><path d="M-4284.228 770.234c-.043.184-.102.364-.175.539l-.552 1.562-2.209 5.94-3.448 9.428-2.128 5.886-2.29 6.64c-3.246 9.28-6.855 20.431-10.775 32.849s-7.839 26.155-11.785 40.647-7.354 28.378-10.3 41.065-5.387 24.149-7.1 33.819l-1.347 6.9c-.458 2.173-.727 4.256-1.051 6.182l-1.616 9.886-.956 6.263-.269 1.63a3.2 3.2 0 0 1-.121.552 2.86 2.86 0 0 1 0-.552l.2-1.643.835-6.29c.364-2.707.875-6.047 1.495-9.913l1-6.182c.354-2.142.821-4.5 1.253-6.909 1.724-9.7 4.135-21.172 6.95-33.886s6.357-26.586 10.249-41.105 8-28.216 11.866-40.647 7.583-23.556 10.9-32.822l2.344-6.626 2.3-5.872 3.569-9.428 2.33-5.886.62-1.535a3.67 3.67 0 0 1 .215-.485z"/><path d="M-4384.931 822.707a1.93 1.93 0 0 1 .31.3l.889.929 3.259 3.65a131.1 131.1 0 0 1 10.775 14.4c4.861 7.494 8.659 15.625 11.286 24.162 3.03 9.616 4.9 20.553 6.734 31.974 3.731 22.9 8.31 43.354 11.623 58.169l3.973 17.509 1.051 4.768.256 1.253c.038.141.061.285.067.431a2.78 2.78 0 0 1-.135-.417l-.318-1.233-1.185-4.754-4.189-17.509c-3.434-14.815-8.081-35.287-11.825-58.183-1.872-11.421-3.731-22.317-6.734-31.893a97.65 97.65 0 0 0-11.1-24.081 136.15 136.15 0 0 0-10.586-14.492l-3.152-3.731-.835-.97a2.02 2.02 0 0 1-.164-.282zm103.491 93.389a2.26 2.26 0 0 1-.66.121l-1.9.216-1.347.135-1.576.3-3.946.66-2.276.458-2.438.619c-1.7.377-3.448 1.01-5.32 1.576a77.66 77.66 0 0 0-11.623 5.118 65.23 65.23 0 0 0-10.411 7.233c-1.414 1.202-2.763 2.479-4.04 3.825-1.126 1.153-2.183 2.372-3.165 3.65a36.51 36.51 0 0 0-2.343 3.232c-.591.811-1.125 1.662-1.6 2.546l-.97 1.643c-.229.377-.364.566-.391.552.062-.215.148-.423.256-.619a66.63 66.63 0 0 0 .862-1.711 22.63 22.63 0 0 1 1.522-2.626 32.79 32.79 0 0 1 2.276-3.313 38.6 38.6 0 0 1 3.125-3.744 50.5 50.5 0 0 1 4.04-3.933 63 63 0 0 1 10.492-7.354c3.765-2.041 7.699-3.754 11.758-5.118 1.886-.552 3.663-1.158 5.387-1.522l2.478-.579 2.29-.418c1.468-.283 2.815-.431 4.04-.566l1.63-.189h1.347l1.912-.081a3.2 3.2 0 0 1 .591-.111zm5.293-92.945a9.59 9.59 0 0 1-1.347 1.266l-3.784 3.286-12.62 10.6-12.768 10.438-3.919 3.111a8.82 8.82 0 0 1-1.495 1.064 8.86 8.86 0 0 1 1.347-1.279l3.771-3.273 12.633-10.6 12.741-10.451 3.919-3.1a8.19 8.19 0 0 1 1.522-1.064zm4.444 24.256c0 .189-9.576 3.205-21.549 6.734s-21.657 6.222-21.711 6.047 9.563-3.205 21.549-6.734l21.711-6.047z"/><path d="M-4307.273 837.751a8.44 8.44 0 0 1-1-1.347l-2.532-3.879c-2.155-3.259-5.212-7.7-8.835-12.431s-7.1-8.849-9.67-11.8l-3.044-3.475c-.406-.406-.763-.858-1.064-1.347.457.341.881.724 1.266 1.145.781.768 1.886 1.9 3.219 3.34 2.694 2.855 6.222 6.95 9.859 11.69a156.12 156.12 0 0 1 8.687 12.593c1.024 1.67 1.832 3.044 2.357 4.04a7.92 7.92 0 0 1 .757 1.471zm-33.441 13.468a31.43 31.43 0 0 1-2.263 3.717c-1.441 2.263-3.394 5.387-5.387 8.956s-3.731 6.842-4.943 9.239a31.28 31.28 0 0 1-2.034 3.838 23.68 23.68 0 0 1 1.589-4.04 107.15 107.15 0 0 1 4.781-9.428 102.57 102.57 0 0 1 5.6-8.876 21.86 21.86 0 0 1 2.657-3.406zm-11.452 41.98c0 .094-1.886-.808-4.9-2.155s-7.206-3.125-11.946-4.795-9.132-2.9-12.323-3.7-5.2-1.266-5.172-1.347a6.62 6.62 0 0 1 1.428.148l3.852.741a104.82 104.82 0 0 1 12.445 3.529 107.1 107.1 0 0 1 11.933 5l3.475 1.832c.432.198.838.449 1.208.747zm9.015 50.183a2.64 2.64 0 0 1-.593.2l-1.737.431-6.411 1.481a211.76 211.76 0 0 0-20.916 5.522 92.82 92.82 0 0 0-19.515 9.172l-5.387 3.744a14.77 14.77 0 0 1-1.939 1.414c.127-.164.271-.313.431-.444l1.347-1.2a57.29 57.29 0 0 1 5.266-3.946c6.096-3.963 12.672-7.131 19.57-9.428 6.898-2.232 13.929-4.031 21.051-5.387l6.449-1.249a13.58 13.58 0 0 1 2.384-.31zm32.579 12.365c-.2 0-1.347-6.734-2.559-15.084s-2.061-15.165-1.872-15.192 1.347 6.734 2.559 15.084 2.06 15.165 1.872 15.192zm33.914-12.31a37.36 37.36 0 0 1-3.057-3.636l-7.246-8.849c-2.869-3.462-5.536-6.451-7.461-8.66a32.53 32.53 0 0 1-3.044-3.636 5.29 5.29 0 0 1 .97.835c.593.566 1.428 1.414 2.438 2.478 2.034 2.115 4.754 5.1 7.636 8.539s5.387 6.626 7.1 9c.875 1.172 1.562 2.141 2.02 2.828.274.329.492.7.646 1.1z"/></g><path d="M-4366.425 974.885v16.768h4.2l14.9 47.018h33.038l14.425-46.56 5.589-.458v-16.768z" class="F"/><g class="B"><path d="M-4297.063 992.111c0 .2-14.6.35-32.58.35s-32.593-.148-32.593-.35 14.586-.35 32.593-.35l32.58.35zm23.757-107.8a15.81 15.81 0 0 1-2.115.566l-5.8 1.347c-4.889 1.212-11.6 3.044-18.856 5.5s-13.738 5.037-18.357 7.03l-5.468 2.4a14.12 14.12 0 0 1-2.074.9 11.85 11.85 0 0 1 1.912-1.077c1.253-.646 3.1-1.535 5.387-2.6a192.6 192.6 0 0 1 37.334-12.552c2.451-.539 4.458-.943 5.845-1.185a13.3 13.3 0 0 1 2.2-.323z"/></g><g class="E"><path d="M-4643.103 642.777a5.01 5.01 0 0 0-2.29.067 3.85 3.85 0 0 0-1.94 1.441 9.82 9.82 0 0 0-1.347 2.774c-.306 1.021-.712 2.009-1.212 2.95a5.19 5.19 0 0 1-1.832 1.9 1.98 1.98 0 0 1-1.764.108c-.391-.189-.539-.377-.525-.391s.2.108.579.229a1.86 1.86 0 0 0 1.562-.229 4.89 4.89 0 0 0 1.63-1.832c.463-.926.846-1.89 1.145-2.882a9.59 9.59 0 0 1 1.414-2.882 4.04 4.04 0 0 1 2.182-1.495c.578-.15 1.186-.15 1.764 0 .228.025.446.109.633.242zm-13.442-9.481a13.3 13.3 0 0 1 2.141.633l5.118 1.657 5.145 1.576a14.41 14.41 0 0 1 2.128.714c-.75-.043-1.492-.177-2.209-.4l-5.2-1.455-5.091-1.791a10.4 10.4 0 0 1-2.034-.929zm15.098 12.66s-.148.215-.431.552c-.427.424-.644 1.016-.593 1.616a1.09 1.09 0 0 0 .714.835c.46.172.94.285 1.428.337a2.48 2.48 0 0 1 1.589.781c.41.543.54 1.247.35 1.9a2.45 2.45 0 0 1-1.253 1.455 2.97 2.97 0 0 1-1.751.323 9.33 9.33 0 0 1-2.694-.9c-.592-.268-1.134-.637-1.6-1.091a1.35 1.35 0 0 1-.391-.606s.175.189.512.485a6.53 6.53 0 0 0 1.6.929 10.3 10.3 0 0 0 2.694.781c1.08.123 2.109-.488 2.519-1.495a1.74 1.74 0 0 0-.256-1.508 2.13 2.13 0 0 0-1.347-.646 6.4 6.4 0 0 1-1.508-.4 1.43 1.43 0 0 1-.862-1.118c.039-.923.547-1.761 1.347-2.222z"/><path d="M-4639.911 653.149a1.07 1.07 0 0 1 .579.256c.479.384.745.975.714 1.589a2.57 2.57 0 0 1-1.455 2.115 4.22 4.22 0 0 1-3.152.175 5.16 5.16 0 0 1-2.586-1.818c-.518-.697-.839-1.52-.929-2.384a4.62 4.62 0 0 1 .121-1.724c.108-.391.216-.593.242-.579a7.48 7.48 0 0 0 0 2.249 4.72 4.72 0 0 0 .956 2.2 4.86 4.86 0 0 0 2.384 1.63c.923.319 1.932.28 2.828-.108.724-.323 1.232-.994 1.347-1.778a1.9 1.9 0 0 0-.512-1.441c-.335-.275-.551-.342-.537-.382zm-8.863-10.654c.081-.081.727.579.835 1.643s-.364 1.845-.471 1.778.135-.795 0-1.724-.471-1.616-.364-1.697z"/></g><path d="M-4778.761 808.222h233.675v144.636h-233.675z" class="H"/><path d="M-4601.492 912.858c-16.162-6.142-34.842 10.842-50.722 3.919-9.253-4.041-13.468-14.492-17.967-23.5s-12.336-18.509-22.37-17.509-18.29 12.768-28.068 9.953c-6.155-1.791-9.226-8.62-10.775-14.815s-2.613-13.091-7.313-17.509-14.478-3.205-15.219 3.165v76.675h182.751s-24.711-18.319-30.317-20.379z" class="G"/><g fill="#e0e0e0"><use xlink:href="#E"/><path d="M-4566.3 899.753c0 .162-44.3.3-98.924.3s-98.925-.135-98.925-.3 44.284-.31 98.925-.31l98.924.31zm0-33.497c0 .162-44.3.3-98.924.3s-98.925-.135-98.925-.3 44.284-.3 98.925-.3l98.924.3zm0-31.825c0 .162-44.3.3-98.924.3s-98.925-.135-98.925-.3 44.284-.3 98.925-.3l98.924.3zm-32.459-357.327s20.593.283 11.785 41.065-7.677 48.486-7.677 64.648c-.249 10.762 5.665 20.723 15.233 25.657h-27.934l-20.539-95.208v-36.162z"/></g><path d="M-4602.384 790.968h-282.01l2.519-275.9 273.823-5.344z" class="G"/><path d="M-4608.227 783.279h-281.433V507.381l281.608-.66z" class="H"/><path d="M-4608.227 783.279l-.135-276.558.31.31-281.164.7h-.444l.35-.35v275.9l-.3-.3 281.487.3-281.487.31h-.293v-276.56h.781l281.177-.606h.3v.3l-.582 276.554z" class="B"/><path d="M-4608.052 505.981c-14.546-16.93 2.33-29.455 8.081-29.724l-268.019-.149c-6.664-.006-12.99 2.933-17.284 8.029s-6.116 11.83-4.979 18.396a32.1 32.1 0 0 0 1.091 4.189" fill="#f5f5f5"/><g class="B"><path d="M-4600.954 608.474h5.657l15.879-.094v.418a17.2 17.2 0 0 1-6.478-3.7 21.13 21.13 0 0 1-4.822-6.9 45.95 45.95 0 0 1-2.9-8.808l-.983-4.822-.391-2.519a20.5 20.5 0 0 1-.189-2.586c-.091-3.595.026-7.193.35-10.775.269-3.663.687-7.421 1.131-11.259.916-7.663 2.061-15.65 3.421-23.839.566-3.488 1.266-6.95 1.845-10.33s1.01-6.734 1.441-10.074l1.172-9.765c.175-1.589.391-3.165.431-4.714.037-1.535-.048-3.071-.256-4.593a27.82 27.82 0 0 0-2.572-8.552 16.81 16.81 0 0 0-5.185-6.384 10.13 10.13 0 0 0-7.327-1.63c-2.376.295-4.628 1.225-6.519 2.694a16.16 16.16 0 0 0-4.04 5.037c-.9 1.73-1.562 3.574-1.966 5.482a14.33 14.33 0 0 0 1.064 9.132 31.63 31.63 0 0 0 2.963 5.158l.916 1.253a10.06 10.06 0 0 1 .3.444 4.47 4.47 0 0 1-.364-.391l-.956-1.226a27.96 27.96 0 0 1-3.1-5.131c-1.422-2.888-1.848-6.165-1.212-9.32a21.97 21.97 0 0 1 1.966-5.6 16.53 16.53 0 0 1 4.162-5.226 13.98 13.98 0 0 1 6.734-2.855c2.7-.443 5.466.165 7.731 1.7 2.32 1.72 4.172 3.993 5.387 6.613a28.07 28.07 0 0 1 2.586 8.687 30.19 30.19 0 0 1 .283 4.7 44.1 44.1 0 0 1-.431 4.781l-1.158 9.778-1.428 10.1-1.832 10.33c-1.347 8.175-2.519 16.162-3.448 23.8l-1.145 11.233a95.68 95.68 0 0 0-.391 10.64c.01.847.068 1.692.175 2.532.067.835.242 1.67.377 2.492.3 1.63.606 3.232.97 4.795a45.19 45.19 0 0 0 2.8 8.714 20.8 20.8 0 0 0 4.673 6.734 16.66 16.66 0 0 0 6.276 3.65l1.347.431h-1.347l-15.879-.094h-5.28zm-173.565-123.788c.108.081-.7 1.145-1.495 3.111a18.1 18.1 0 0 0-1.01 3.542 20.42 20.42 0 0 0-.216 4.512 19.57 19.57 0 0 0 .9 4.418c.392 1.173.906 2.302 1.535 3.367 1.091 1.8 2.047 2.694 1.953 2.842s-.3-.189-.727-.606a11.19 11.19 0 0 1-1.643-1.98c-.711-1.061-1.29-2.205-1.724-3.407a17.1 17.1 0 0 1-.714-9.253c.251-1.255.65-2.475 1.188-3.636.362-.786.814-1.527 1.347-2.209.337-.472.566-.727.606-.701zm-6.695-9.548a28.13 28.13 0 0 0-3.556 4.35 17.81 17.81 0 0 0 4.486 24.05 28.82 28.82 0 0 0 4.862 2.788 6.3 6.3 0 0 1-1.482-.4c-1.313-.493-2.556-1.154-3.7-1.966a17.77 17.77 0 0 1-7.445-11.438c-.86-4.651.172-9.455 2.866-13.344a15.88 15.88 0 0 1 2.694-3.165 5.62 5.62 0 0 1 1.275-.875zm151.465 215.385h-3.461l-9.953.067-36.634.175-120.689.108h-52.392v-.337l.135-85.2.094-24.62h0l.094 24.62.135 85.2-.337-.337h52.055l120.689.108 36.58.108 9.953.067h2.586z"/></g><g class="C"><path d="M-4834.386 661.202h22.505v22.505h-22.505zm32.983-16.081h22.505v38.587h-22.505zm33.119-18.276h22.505v56.863h-22.505zm32.108-20.338h22.505v77.2h-22.505zm32.849-26.034h22.505v103.234h-22.505zm32.607-19.865h22.505v122.036h-22.505z"/></g><g class="B"><path d="M-4834.387 638.105c.084-.088.179-.165.283-.229l.875-.606 3.434-2.29 12.889-8.5 44.647-29.186.525-.337v10.694l-.539-.283 17.59-11.8 62.09-41.479 18.856-12.512 5.145-3.367 1.347-.862.471-.269a2.95 2.95 0 0 1-.431.323l-1.347.929-5.078 3.475-18.667 12.795-61.954 41.658-17.6 11.785-.539.364v-10.776l.525.283-44.8 28.97-13 8.337-3.488 2.2-.9.566z"/><path d="M-4666.747 546.641a11.54 11.54 0 0 1-.242-2.774l-.108-6.734.35.35h-.862c-2.882 0-5.5 0-7.381-.108-1.025.031-2.05-.051-3.057-.242a13.47 13.47 0 0 1 3.057-.256l7.381-.094h1.212v.31l-.108 6.734a11.54 11.54 0 0 1-.242 2.815zm-118.898 162.023c0 .2-6.95.35-15.529.35s-15.529-.148-15.529-.35 6.95-.35 15.529-.35 15.529.162 15.529.35zm-15.946 10.64c-.467-2.402-.467-4.871 0-7.273a19.06 19.06 0 0 1 0 7.273zm38.061 3.65c0 .189-18.68.35-41.752.35s-41.752-.162-41.752-.35 18.667-.35 41.752-.35l41.752.35z"/><path d="M-4846.373 733.297c-.467-3.342-.467-6.732 0-10.074.467 3.342.467 6.732 0 10.074zm29.67-1.117a27.03 27.03 0 0 1 0-8.674c.467 2.872.467 5.802 0 8.674zm30.505.552c-.467-3.152-.467-6.357 0-9.509.467 3.152.467 6.357 0 9.509zm23.22 0a34.39 34.39 0 0 1 0-9.791 34.4 34.4 0 0 1 0 9.791zm-73.051 3.367a73.83 73.83 0 0 1-10.074.35 73.7 73.7 0 0 1-10.074-.35c3.346-.355 6.712-.472 10.074-.35a71.2 71.2 0 0 1 10.074.35zm25.764 0a84.78 84.78 0 0 1-15.394 0 84.75 84.75 0 0 1 15.394 0zm32.742.835a97.5 97.5 0 0 1-16.512 0 97.48 97.48 0 0 1 16.512 0zm26.586-1.401a111.1 111.1 0 0 1-17.63 0 111.1 111.1 0 0 1 17.63 0zm-95.154 10.317a12.48 12.48 0 0 1 0-5.872 12.48 12.48 0 0 1 0 5.872z"/><path d="M-4826.939 745.85c0 .189-8.148.35-18.182.35s-18.2-.162-18.2-.35 8.148-.35 18.2-.35 18.182.189 18.182.35zm0 8.432c-.467-2.778-.467-5.613 0-8.391.467 2.778.467 5.613 0 8.391zm-36.377.565a28.8 28.8 0 0 1 0-8.956 28.81 28.81 0 0 1 0 8.956zm77.86-8.997a12.48 12.48 0 0 1 0-5.872 12.48 12.48 0 0 1 0 5.872z"/><path d="M-4741.226 745.85c0 .189-13.765.35-30.735.35s-30.721-.162-30.721-.35 13.751-.35 30.721-.35l30.735.35z"/><path d="M-4766.305 754.282c-.467-2.778-.467-5.613 0-8.391a25.31 25.31 0 0 1 0 8.391zm26.331 0a25.3 25.3 0 0 1 0-8.391c.467 2.778.467 5.613 0 8.391zm-62.708.565a28.81 28.81 0 0 1 0-8.956 28.8 28.8 0 0 1 0 8.956zm-53.469 5.158a73.49 73.49 0 0 1-14.33 0 73.46 73.46 0 0 1 14.33 0zm35.637-1.023a85.95 85.95 0 0 1-15.5 0 85.95 85.95 0 0 1 15.5 0zm25.738 0a66.63 66.63 0 0 1-13.643 0c4.536-.467 9.107-.467 13.643 0zm34.708-.001a78.34 78.34 0 0 1-14.815 0 78.34 78.34 0 0 1 14.815 0zm27.745-.929a80.8 80.8 0 0 1-15.031 0c4.999-.467 10.032-.467 15.031 0zm102.358 5.455h-94.992v-58.829h94.992zm-94.938-.067h94.938v-58.692h-94.925z"/></g><path d="M-4652.861 747.197c-6.586-2.492-14.155 4.4-20.62 1.589-3.744-1.63-5.455-5.886-7.3-9.535s-5.01-7.529-9.078-7.1-7.435 5.185-11.408 4.04c-2.505-.727-3.744-3.5-4.377-6.034s-1.064-5.32-2.976-7.1-5.872-1.347-6.182 1.347v31.152h74.251s-10.075-7.497-12.31-8.359z" class="C"/><use xlink:href="#F" fill="#e0e0e0"/><g class="B"><path d="M-4638.611 741.903c0 .067-17.994.121-40.189.121s-40.189 0-40.189-.121 17.994-.121 40.189-.121l40.189.121zm0-13.562l-40.189.108c-22.195 0-40.189 0-40.189-.108s17.994-.121 40.189-.121l40.189.121zm0-12.983l-40.189.121c-22.195 0-40.189 0-40.189-.121s17.994-.121 40.189-.121l40.189.121zm-213.863-188.651h.512a7.77 7.77 0 0 1 1.482.135 7.61 7.61 0 0 1 2.236.768 7.25 7.25 0 0 1 2.384 2.047 8.46 8.46 0 0 1 1.576 3.5 8.35 8.35 0 0 1-.552 4.377 12.97 12.97 0 0 1-1.091 2.155 22.8 22.8 0 0 0-1.226 2.182c-.784 1.58-1.337 3.263-1.643 5v.121h-.121l-3.515-.081-3.69-.094h-.108v-.135c-.091-1.744-.614-3.437-1.522-4.929l-1.253-2.168c-.425-.674-.812-1.371-1.158-2.088-.604-1.373-.742-2.906-.391-4.364a9.16 9.16 0 0 1 1.522-3.488 6.73 6.73 0 0 1 2.357-1.98 8.31 8.31 0 0 1 2.222-.754c.483-.105.974-.168 1.468-.189h0a9.21 9.21 0 0 0-1.441.229c-.759.163-1.492.426-2.182.781a6.84 6.84 0 0 0-2.33 1.98 9.04 9.04 0 0 0-1.441 3.434c-.338 1.41-.2 2.892.39 4.216a21.35 21.35 0 0 0 1.158 2.061l1.266 2.168a10.66 10.66 0 0 1 1.549 5.064l-.121-.148 3.69.094 3.515.094-.135.108c.317-1.758.88-3.462 1.67-5.064.377-.756.795-1.49 1.253-2.2a12.53 12.53 0 0 0 1.078-2.115c.577-1.344.772-2.821.566-4.269a8.43 8.43 0 0 0-1.495-3.421c-.618-.846-1.407-1.553-2.316-2.074a7.89 7.89 0 0 0-2.182-.795 9.9 9.9 0 0 0-1.468-.175h-.391z"/><path d="M-4851.453 546.519a.82.82 0 0 0 0-.121v-.323c0-.3-.081-.727-.148-1.347l-.364-4.727v-3.273c.041-.613.201-1.212.471-1.764a2.79 2.79 0 0 1 1.414-1.347 1.82 1.82 0 0 1 1.926.458c.254.263.39.618.377.983a1.77 1.77 0 0 1-.4 1.01 2.56 2.56 0 0 1-.889.66c-.342.144-.699.248-1.064.31a14.17 14.17 0 0 1-4.525 0 3.58 3.58 0 0 1-1.051-.35 2.69 2.69 0 0 1-.875-.673c-.245-.275-.412-.609-.485-.97a1.66 1.66 0 0 1 .175-1.051 1.47 1.47 0 0 1 .781-.7c.335-.111.701-.077 1.01.094.299.154.551.387.727.673a2.53 2.53 0 0 1 .337.9 10.53 10.53 0 0 1 .108 1.818v9.738a.65.65 0 0 0 0-.108v-1.684l-.081-4.727v-3.273a10.3 10.3 0 0 0-.108-1.8 2.48 2.48 0 0 0-.323-.862 1.77 1.77 0 0 0-.7-.633 1.12 1.12 0 0 0-.929-.081c-.309.12-.564.35-.714.646a1.5 1.5 0 0 0-.162.97 2.08 2.08 0 0 0 .458.929 3.22 3.22 0 0 0 1.872.983 12.24 12.24 0 0 0 2.236.2 11.22 11.22 0 0 0 2.236-.175 3.92 3.92 0 0 0 1.05-.3c.325-.142.615-.354.849-.62a1.66 1.66 0 0 0 .377-.943 1.21 1.21 0 0 0-.35-.916 1.71 1.71 0 0 0-1.8-.431c-.588.244-1.067.694-1.347 1.266a4.4 4.4 0 0 0-.471 1.724 14.08 14.08 0 0 1-.067 1.7 12.09 12.09 0 0 0 0 1.562l.323 4.714a10.26 10.26 0 0 0 .135 1.347v.512zm-4.685.001v4.269h0l2.29 2.855h2.546l1.441-1.63.727-.808v.108l.081-4.566.148.148-5.185-.162h-2.047a1.79 1.79 0 0 1 .485 0h6.855v4.714h0l-.727.822-1.441 1.616h-2.855l-2.412-2.975h0l.094-3.165a7.38 7.38 0 0 1 0-1.226zm6.99 4.337l-.269-.121c-.226-.12-.46-.223-.7-.31a6.87 6.87 0 0 0-2.492-.485c-.85-.01-1.695.136-2.492.431a6.12 6.12 0 0 0-.714.3l-.269.121a1 1 0 0 1 .242-.162l.714-.337a6.99 6.99 0 0 1 2.518-.471 6.83 6.83 0 0 1 2.519.525 6.72 6.72 0 0 1 .7.35 1 1 0 0 1 .242.162zm.041-1.105l-.256-.135-.714-.31a7.49 7.49 0 0 0-2.492-.485c-.85.001-1.694.151-2.492.444a6.12 6.12 0 0 0-.714.3l-.256.108.242-.148a4.31 4.31 0 0 1 .7-.337 6.75 6.75 0 0 1 2.532-.471 6.8 6.8 0 0 1 2.505.525 4.77 4.77 0 0 1 .7.35 1 1 0 0 1 .245.159zm-.027-1.064c-.09-.031-.175-.071-.256-.121a5.79 5.79 0 0 0-.714-.31 7 7 0 0 0-4.983 0c-.3.108-.539.215-.714.3l-.256.121.242-.162.7-.323a6.57 6.57 0 0 1 2.532-.471 6.64 6.64 0 0 1 2.519.512l.7.35z"/></g><path d="M-4823.41 577.685s-2.694 24.849.768 38.452l33.2-1.455s-7.111-24.5-2.694-35.354z" class="G"/><path d="M-4823.275 576.891s.229 26.829 1.589 35.018l33.671-1.589s-2.963-26.371-1.818-33.415z" class="C"/><g fill="#fff"><path d="M-4794.938 588.164c0 .121-5.037.525-11.273.9s-11.286.579-11.3.444 5.037-.525 11.273-.9 11.3-.575 11.3-.444zm.014 5.67c0 .135-5.037.539-11.273.9s-11.3.579-11.3.458 5.037-.525 11.273-.9 11.286-.634 11.3-.458zm-5.724 5.592c-.612.161-1.24.251-1.872.269l-4.539.337-4.552.2c-.631.084-1.269.084-1.9 0a7.58 7.58 0 0 1 1.872-.269l4.552-.337 4.552-.215a7.39 7.39 0 0 1 1.885.013z"/></g><g class="B"><path d="M-4746.573 533.334c0 .2-19.677.35-43.947.35s-43.947-.148-43.947-.35 19.677-.35 43.947-.35l43.947.35zm-55.611 8.014c0 .2-7.381.35-16.485.35s-16.485-.148-16.485-.35 7.381-.35 16.485-.35 16.485.135 16.485.35zm17.505 0c-4.225.467-8.489.467-12.714 0a57.91 57.91 0 0 1 12.714 0zm183.725 84.5a1.2 1.2 0 0 1 0-.31 3.9 3.9 0 0 0-.081-.9l-.283-3.461-.862-12.754-2.626-42.115-2.411-42.129-.646-12.768-.135-3.475v-.9a.81.81 0 0 1 0-.31q.008.155 0 .31l.081.9.269 3.461.875 12.754 2.613 42.115 2.411 42.115.66 12.781.135 3.475v.9a.81.81 0 0 1 0 .31zm-7.098-149.592h-44.283l-106.925.013-110.642-.35h0a26.64 26.64 0 0 0-14.061 8.768c-2.719 3.258-4.596 7.133-5.468 11.286a27.41 27.41 0 0 0-.525 7.933c.081.9.162 1.589.242 2.047a6.63 6.63 0 0 1 .094.7 17.71 17.71 0 0 1-.471-2.694 26.49 26.49 0 0 1 .4-8c.825-4.206 2.675-8.143 5.387-11.462a26.94 26.94 0 0 1 14.249-9h0l110.655.135 106.871.337 32.4.189 8.808.081h2.29zm-213.942 387.927a6.46 6.46 0 0 1-1.145.081l-3.286.067-12.054.121-39.786.112h-3.205v-.377l.121-37.886.108-11.381.067-3.084a5.7 5.7 0 0 1 .081-1.077 6.81 6.81 0 0 1 0 1.077l.067 3.084.121 11.381.121 37.886-.377-.377h2.831l39.785.121 12.054.108 3.286.081a7.8 7.8 0 0 1 1.212.067zm-6.573-40.459a15.77 15.77 0 0 1-1.764 1.684l-4.983 4.377-16.647 14.236-1 .835-.242.215-.242-.229-7.408-6.882h.458l-10.869 8.97-3.152 2.519c-.365.323-.762.607-1.185.848a6.83 6.83 0 0 1 1.037-1.024l3.03-2.694 10.694-9.172.229-.2.229.2 7.435 6.842h-.485l.983-.835 16.781-14.061 5.145-4.2a16.16 16.16 0 0 1 1.956-1.429z"/><path d="M-4828.567 836.088a19.41 19.41 0 0 1-.256-3.69l-.121-8.983.377.377h-.637c-3.677 0-7 0-9.428-.108a19.6 19.6 0 0 1-3.906-.269c1.292-.202 2.599-.288 3.906-.256l9.428-.121h1.01v.377l-.121 8.983c.034 1.235-.051 2.471-.252 3.69z"/></g><path d="M-4935.939 622.777s7.54 36.562-8.56 46.448-48.65 22.392-51.451 3.106-3.818-43.343 0-49.555 19.61-34.986 34.462-29.528 25.549 29.529 25.549 29.529z" fill="#1f292e"/><path d="M-4969.168 944.691c2.355 5.525 12.2 134.023 11.155 132.075l18.727-1.645 3.359-133.434z" class="B"/><path d="M-4932.413 1076.389l-.075-2.294-26.46.483.166 7.547h1.63c7.275.211 37.026.649 41.842-.649 5.391-1.328-17.103-5.087-17.103-5.087z" fill="#fff"/><g opacity=".3"><path d="M-4949.244 1081.838c-.52-1.906-1.767-3.531-3.472-4.528-1.858-1.139-4.026-1.667-6.2-1.509l.151 6.038z"/></g><g opacity=".3"><path d="M-4921.409 1078.547s7.894 1.721 6.943 2.807-31.034 1.509-44.317.815v-.483l35.079-.317s.755-2.742 2.295-2.822z"/></g><g class="B"><path d="M-4959.175 1081.672h1.766l4.785.106h15.819c6.174 0 11.758-.287 15.8-.468l4.785-.242 1.3-.075h-1.313l-4.785.151-15.8.377-15.8.106h-6.557zm24.09-5.977a3.83 3.83 0 0 0 1.389.121c.462.035.927-.011 1.374-.136a3.49 3.49 0 0 0-1.389-.121 3.59 3.59 0 0 0-1.374.136z"/><path d="M-4935.583 1074.261a3.02 3.02 0 0 0 1.509.347c.512.055 1.029-.014 1.509-.2a8.84 8.84 0 0 0-1.509 0 12.07 12.07 0 0 0-1.509-.151zm-23.2 1.509h1.947a9.82 9.82 0 0 1 4.287 1.374 7.29 7.29 0 0 1 2.732 3.019c.209.491.385.995.528 1.509v-.438c-.068-.397-.174-.786-.317-1.162a6.9 6.9 0 0 0-2.747-3.17c-1.37-.827-2.929-1.289-4.528-1.343a9.7 9.7 0 0 0-1.509 0 1.9 1.9 0 0 0-.393.211zm12.8 3.908a17.89 17.89 0 0 0 3.864.257 17.3 17.3 0 0 0 3.834-.317c0-.075-1.721 0-3.849 0-1.283-.045-2.568-.025-3.849.06zm-5.162.077l.332.619c.181.319.287.6.377.6s.136-.347-.091-.709-.527-.555-.618-.51zm-1.993-1.947a1.54 1.54 0 0 0 .392.5c.272.226.558.362.619.3s-.121-.272-.392-.5-.559-.345-.619-.3zm-2.807-.864c0 .075.377 0 .77.166s.664.272.74.226-.166-.347-.649-.468-.892-.011-.861.076zm-1.993-.389c.09.112.211.196.347.242a.83.83 0 0 0 .453 0c.03 0-.121-.181-.347-.242s-.423-.075-.453 0zm-59.17-131.245c.694 2.43 13.706 132.377 13.706 132.377l17.854-1.627 5.1-130.747z"/></g><path d="M-4977.817 1077.324l-.091-2.309-26.445.5.151 7.547h1.645c7.275.211 37.011.649 41.841-.634 5.373-1.345-17.101-5.104-17.101-5.104z" fill="#fff"/><g opacity=".3"><path d="M-4994.647 1082.758c-.524-1.908-1.776-3.534-3.487-4.528a10.4 10.4 0 0 0-6.2-1.509l.151 6.038z"/></g><g opacity=".3"><path d="M-4966.828 1079.483s7.894 1.721 6.943 2.792-31.019 1.509-44.317.815v-.483l35.079-.317s.77-2.732 2.295-2.807z"/></g><g class="B"><path d="M-5004.579 1082.608h1.751l4.785.091h15.819c6.174 0 11.758-.287 15.8-.453l4.785-.242 1.3-.091h.453c-.15-.019-.303-.019-.453 0h-1.313l-4.785.151-15.789.392-15.8.106h-6.038z"/><path d="M-4969.078 1082.623c.19-.666.475-1.302.845-1.887a10.55 10.55 0 0 1 1.509-1.509 3.55 3.55 0 0 0-1.872 1.4 2.38 2.38 0 0 0-.482 1.996zm-7.864-3.094a3.14 3.14 0 0 0 .815-.845c.377-.5.6-.936.528-.981s-.438.347-.8.845-.618.935-.543.981zm-2.159-.891a2.16 2.16 0 0 0 .921-.528c.453-.332.755-.664.694-.709a2.23 2.23 0 0 0-.906.513c-.437.331-.769.663-.709.724zm-1.388-2.022a3.43 3.43 0 0 0 1.374.121 3.59 3.59 0 0 0 1.374-.136 3.79 3.79 0 0 0-1.374-.121 3.91 3.91 0 0 0-1.374.136z"/><path d="M-4980.987 1075.197a4.45 4.45 0 0 0 3.019.136 10.9 10.9 0 0 0-1.509 0 10.4 10.4 0 0 0-1.509-.136zm4.891 2.43a5.69 5.69 0 0 0 1.691 0 11.88 11.88 0 0 0 1.8-.362 6.04 6.04 0 0 0 1.026-.362.77.77 0 0 0 .408-.438.5.5 0 0 0-.272-.543c-1.318-.529-2.824-.213-3.819.8a2.22 2.22 0 0 0-.528.936v.377a3.32 3.32 0 0 1 .74-1.193 3.02 3.02 0 0 1 1.419-.8 3.2 3.2 0 0 1 2.023.075c.272.166.181.423-.121.574a6.28 6.28 0 0 1-.936.347c-.57.171-1.15.307-1.736.407l-1.695.182z"/><path d="M-4975.659 1077.688c.202-.279.269-.633.181-.966-.065-.375-.238-.723-.5-1a1.75 1.75 0 0 0-1.419-.694c-.155.015-.298.093-.395.215a.57.57 0 0 0-.118.434 1.42 1.42 0 0 0 .317.619 4.27 4.27 0 0 0 .815.83 2.67 2.67 0 0 0 .981.543c-.286-.208-.558-.435-.815-.679a4.96 4.96 0 0 1-.74-.815c-.242-.287-.408-.815 0-.891a1.66 1.66 0 0 1 1.132.574c.233.254.404.559.5.891a3.02 3.02 0 0 1 .061.939zm-28.543-.997a13.23 13.23 0 0 1 1.947 0 9.71 9.71 0 0 1 4.287 1.359c1.185.719 2.134 1.768 2.732 3.019.423.921.483 1.509.543 1.509a1.4 1.4 0 0 0 0-.438 4.3 4.3 0 0 0-.317-1.147c-.558-1.324-1.519-2.438-2.747-3.185a9.3 9.3 0 0 0-4.528-1.328 8.01 8.01 0 0 0-1.509 0 1.95 1.95 0 0 0-.408.211zm12.815 3.925c1.271.217 2.561.298 3.849.242 1.291.037 2.582-.07 3.849-.317 0-.075-1.736 0-3.849 0a35.16 35.16 0 0 0-3.849.075zm-5.163.075c-.075 0 .136.287.332.619s.287.6.377.589.121-.347-.091-.709-.572-.56-.618-.499zm-2.007-1.962a1.39 1.39 0 0 0 .392.5c.272.211.558.362.619.317s-.106-.287-.392-.5-.559-.36-.619-.317zm-2.808-.861c0 .075.377.075.77.181s.664.257.74.211-.166-.347-.649-.468-.876.015-.861.076zm-1.992-.392a.74.74 0 0 0 .347.241 1.05 1.05 0 0 0 .453 0c.03 0-.121-.181-.347-.241s-.423-.06-.453 0z"/></g><path d="M-4868.519 715.619h0c5.011-3.245 8.136-5.932 11.532-7.879 4.181-2.4 5.736-3.683 5.238-4.423-.679-1.011-.377-.649-8.589 2.611 0 0 11.683-4.77 8.347-5.721-1.509-.423-11.23 3.441-11.23 3.441 8.106-2.385 10.793-4.528 10.37-5.781-.62-1.75-12.42 3.02-12.42 3.02s9.057-3.472 10.475-4.528-.709-1.509-2.551-1.509c-2.083.136-14.008 2.642-17.494 3.185-.586.163-1.214.061-1.719-.279s-.836-.883-.907-1.487c.166-5.117-2.445-9.177-3.668-9.947s-2.687.649-2.083 2.128a18.63 18.63 0 0 1 .815 5.117c.086 1.385-.067 2.774-.453 4.106-.438 1.509-.875 2.838-1.283 3.909l-23.112 36.226 10.023 24.77z" class="D"/><g class="E"><path d="M-4865.244 708.027a23.46 23.46 0 0 0 5.721-2.023c1.919-.673 3.741-1.597 5.419-2.747a23.88 23.88 0 0 0-5.721 2.008 23.29 23.29 0 0 0-5.419 2.762zm-1.585-3.034c2.14-.337 4.229-.942 6.219-1.8 2.08-.603 4.077-1.46 5.947-2.551-4.22.94-8.306 2.4-12.166 4.347zm-1.63-3.14a23.59 23.59 0 0 0 5.917-1.615 23.32 23.32 0 0 0 5.645-2.355 23.14 23.14 0 0 0-5.917 1.6c-1.976.542-3.874 1.339-5.645 2.37z"/></g><g class="C"><path d="M-4933.652 677.884v55.23l1.075 29.785-62.42 30.189.62-30.189-12.74-40.5c0-.666-1.208-43.4-1.208-43.4l22.777-5.54 28.679-.332z"/><path d="M-5008.323 678.985s-8.045 3.547-11.291 6.189c-2.174 1.766-21.132 35.7-33.434 58.1a21.13 21.13 0 0 0 9.238 29.177l35.4 17.283 10.687-29.676-20.257-10.943 15.303-26.64-5.645-43.487"/><path d="M-5008.414 789.733l-13.177-.981v-11.05l19.26-4.86zm-13.071-41.102c2.152.282 4.33.322 6.491.121a9.75 9.75 0 0 0 5.8-2.657c2.083-2.174 2.6-5.359 3.019-8.332l2.174-15.381c-5.208.317-9.57 4.362-11.819 9.057s-2.747 10.008-3.215 15.185m85.384-68.741l24.86 56.468 15.985-21.917s16.272 7.985 14.309 31.215l-19.336 26.279a17.93 17.93 0 0 1-26.7-5.147l-17.389-30.43z"/></g><g class="B"><path d="M-4996.142 757.385a11.46 11.46 0 0 1-.649-1.9l-1.509-5.253-5.268-17.253c-2.083-6.687-3.864-12.875-4.966-17.374-.543-2.249-.966-4.075-1.208-5.343a10.56 10.56 0 0 1-.317-1.977 8.92 8.92 0 0 1 .619 1.917l1.509 5.268a499.4 499.4 0 0 0 5.162 17.283c2.143 6.717 3.909 12.86 5.072 17.328l1.3 5.313a9.4 9.4 0 0 1 .257 1.992zm-38.4-11.577a1.47 1.47 0 0 1-.075-.83c.167-.784.626-1.474 1.283-1.932a4.68 4.68 0 0 1 3.306-.906c1.373.209 2.688.697 3.864 1.434 4.845 3.019 9.057 4.619 9.057 4.83a30.19 30.19 0 0 1-9.434-4.136c-1.095-.686-2.308-1.16-3.577-1.4a4.18 4.18 0 0 0-2.9.634 3.14 3.14 0 0 0-1.3 1.509c-.164.495-.164.797-.224.797zm29.147 10.536c.106.106-1.374 1.509-3.487 4.06a56.62 56.62 0 0 0-11.608 22.747l-1.208 5.223a4.86 4.86 0 0 1 0-1.509 31.78 31.78 0 0 1 .6-3.894 49.37 49.37 0 0 1 11.658-22.987 34.4 34.4 0 0 1 2.777-2.792c.379-.343.806-.629 1.268-.848zm69.691-64.393c.284.704.506 1.431.664 2.174l1.509 6.038c1.654 6.645 2.565 13.454 2.717 20.3a105.69 105.69 0 0 1-2.26 20.348c-.5 2.566-.951 4.634-1.283 6.038a11.14 11.14 0 0 1-.6 2.189 13.89 13.89 0 0 1 .3-2.249l1.041-6.113a120.52 120.52 0 0 0 2.023-20.241 104.85 104.85 0 0 0-2.481-20.184l-1.253-6.038a11.53 11.53 0 0 1-.377-2.262zm26.385 60.454a43.64 43.64 0 0 1 .151-8.226 41.9 41.9 0 0 1 .951-8.181 44.5 44.5 0 0 1-.166 8.226c-.055 2.75-.368 5.489-.936 8.181z"/><path d="M-4902.149 751.725c-1.579-2.945-2.927-6.008-4.03-9.162a64.48 64.48 0 0 1-3.321-9.449c1.595 2.939 2.948 6.003 4.045 9.162a61.19 61.19 0 0 1 3.306 9.449zm12.981 6.43c-.136 0 .106-2.068 0-5.374a34.2 34.2 0 0 0-2.762-12.453c-1.787-3.907-4.193-7.501-7.125-10.642-2.249-2.415-3.8-3.774-3.713-3.879a4.9 4.9 0 0 1 1.177.845 37.84 37.84 0 0 1 10.385 13.358c1.738 4.032 2.624 8.38 2.6 12.77a29.6 29.6 0 0 1-.272 3.94 4.53 4.53 0 0 1-.29 1.435z"/></g><g class="H"><path d="M-4985.047 690.277l-1.675-.77a11.85 11.85 0 0 0-4.86-.845 11.11 11.11 0 0 0-6.717 2.46c-2.158 1.721-3.592 4.528-5.736 7.079a10.16 10.16 0 0 1-3.894 3.019 9.36 9.36 0 0 1-4.528.543c-2.554-.344-4.963-1.389-6.959-3.019-1.347-1.04-2.599-2.197-3.743-3.457a9.33 9.33 0 0 1-1.208-1.419 7.65 7.65 0 0 1 1.419 1.208 41.48 41.48 0 0 0 3.849 3.215c1.958 1.492 4.275 2.439 6.717 2.747a8.92 8.92 0 0 0 4.181-.543 9.63 9.63 0 0 0 3.592-2.747c2.053-2.43 3.532-5.313 5.872-7.14a11.47 11.47 0 0 1 7.17-2.43c1.725-.026 3.432.357 4.981 1.117.418.206.817.449 1.192.725q.377.24.347.257zm-22.204 50.852a1.86 1.86 0 0 1-.408.181 4.95 4.95 0 0 1-1.283.242c-1.621.038-3.211-.453-4.528-1.4a12.62 12.62 0 0 1-4.529-5.441c-1.147-2.415-1.872-5.238-3.019-8a17.75 17.75 0 0 0-4.694-6.823 18.81 18.81 0 0 0-5.826-3.517c-2.007-.682-4.089-1.123-6.2-1.313a5.75 5.75 0 0 1 1.736-.091 15.89 15.89 0 0 1 4.649.875 18.34 18.34 0 0 1 6.128 3.5c2.195 1.922 3.894 4.345 4.951 7.064l2.9 8c.879 2.105 2.314 3.931 4.151 5.283 1.223.92 2.697 1.446 4.226 1.509 1.142.067 1.73-.144 1.746-.069zm-36.786 31.517a8.35 8.35 0 0 0 1.509-.317c1.289-.609 2.325-1.651 2.928-2.943a23.44 23.44 0 0 0 1.842-6.128 31.52 31.52 0 0 1 2.264-7.713 11 11 0 0 1 2.581-3.366 12.08 12.08 0 0 1 3.381-2.053 16.72 16.72 0 0 1 6.506-1.087 26.1 26.1 0 0 1 4.392.5 6.44 6.44 0 0 1 1.509.423c0 .151-2.294-.362-5.962-.362-2.132-.004-4.244.406-6.219 1.208-2.41.962-4.382 2.777-5.54 5.1a32.15 32.15 0 0 0-2.264 7.547 22.49 22.49 0 0 1-2.068 6.249 6.2 6.2 0 0 1-3.306 3.019 3.2 3.2 0 0 1-1.223.121 1.05 1.05 0 0 1-.33-.198zm41.887.286a50.8 50.8 0 0 0-8.891 1.219 49.89 49.89 0 0 0-8.226 3.562 17.39 17.39 0 0 1 8.015-4.317c2.94-.953 6.078-1.114 9.1-.468zm39.17-58.188a12.9 12.9 0 0 1-1.781.709c-1.57.712-3.05 1.609-4.408 2.672-1.736 1.328-3.623 3.14-5.736 5.147a32.06 32.06 0 0 1-7.547 5.8 15.56 15.56 0 0 1-9.464 1.374 28.98 28.98 0 0 1-7.442-2.37c-2.023-.936-3.577-1.826-4.634-2.445a8.62 8.62 0 0 1-1.615-1.057c.075-.136 2.445 1.238 6.475 3.019a29.63 29.63 0 0 0 7.321 2.1 15.1 15.1 0 0 0 9.057-1.374 33.18 33.18 0 0 0 7.472-5.615c1.86-1.806 3.826-3.5 5.887-5.072a18.92 18.92 0 0 1 4.634-2.506c.574-.204 1.173-.331 1.781-.377zm32.318 6.052c0 .241-5.494 0-12.075 1.057s-11.849 2.732-11.924 2.491c1.05-.586 2.171-1.032 3.336-1.328 2.767-.87 5.599-1.521 8.468-1.947a57.36 57.36 0 0 1 8.664-.589 13.37 13.37 0 0 1 3.531.316zm-3.986-20.271a14.92 14.92 0 0 1-3.321-.785l-7.879-2.294-7.864-2.324a15.2 15.2 0 0 1-3.23-1.132 14.25 14.25 0 0 1 3.366.589l7.955 2.113 7.819 2.521a14.43 14.43 0 0 1 3.155 1.313zm11.287 3.155c.091.226-2.143 1.147-4.528 2.853l-4.226 3.291a14.04 14.04 0 0 1 8.77-6.143zm13.483 27.515a3.35 3.35 0 0 1-.226 1.192 14.37 14.37 0 0 1-1.268 3.019c-1.854 3.165-4.442 5.836-7.547 7.789a45.48 45.48 0 0 1-9.736 4.634 23.61 23.61 0 0 1-4.272 1.268 27.39 27.39 0 0 1 4.06-1.8 54.54 54.54 0 0 0 9.509-4.77 24.59 24.59 0 0 0 7.426-7.4c1.495-2.421 1.918-4.032 2.054-3.932zm4.223 43.096a28.5 28.5 0 0 1-.74-4.936c-.347-3.019-.694-7.291-.906-11.985s-.242-8.951-.166-12.075a28.28 28.28 0 0 1 .3-4.981 36.36 36.36 0 0 1 .241 4.981l.408 11.985.664 11.985c.184 1.669.251 3.348.2 5.026zm26.328-44.061a52 52 0 0 0-11.049-4.528 52.83 52.83 0 0 0-11.894-1.118 11.61 11.61 0 0 1 3.532-.513 31 31 0 0 1 8.559.86 30.62 30.62 0 0 1 7.97 3.215 11.16 11.16 0 0 1 2.882 2.084z"/></g><path d="M-4870.255 710.412c0 .075-.5-.347-1.328-.815a6.52 6.52 0 0 0-3.608-.83h-.589l.211-.558c.173-.449.319-.908.438-1.374.419-2.254.337-4.573-.242-6.792.478.532.801 1.185.936 1.887a9.99 9.99 0 0 1 0 5.087 10.57 10.57 0 0 1-.483 1.509l-.377-.528c1.406-.062 2.791.359 3.925 1.192.876.618 1.178 1.177 1.117 1.222z" class="E"/><path d="M-4992.278 761.068l-.226 2.249s-27.728 33.525-29.962 56.558c-1.842 19.019 3.2 163.381 3.2 163.381l91.049-10.189s-.771-157.747-4.646-213.413c-16.016-52.999-59.415 1.414-59.415 1.414z" class="C"/><g class="F"><path d="M-4952.821 792.751a2.49 2.49 0 0 1 0 .483v1.4l-.166 5.359-.86 19.743-4.075 65.057-5.026 64.981-1.721 19.623-.513 5.343-.151 1.389a1.87 1.87 0 0 1-.091.468c-.02-.155-.02-.313 0-.468l.075-1.4.377-5.358 1.509-19.7 4.8-65 4.3-65.026 1.117-19.728.317-5.358.106-1.389a1.51 1.51 0 0 1 .002-.419zm-13.041 40.785a3.65 3.65 0 0 0-1.162 1.841c-.173.744-.013 1.526.438 2.143.631.642 1.565.886 2.429.633a2.45 2.45 0 0 0 1.707-1.841c.047-.761-.24-1.505-.785-2.038a3.71 3.71 0 0 0-1.962-.936 1.1 1.1 0 0 1 .649-.166 2.73 2.73 0 0 1 1.691.694 2.98 2.98 0 0 1 .89 2.983c-.288 1.083-1.16 1.912-2.255 2.145a2.98 2.98 0 0 1-2.935-1.037 3.02 3.02 0 0 1-.408-2.717 2.67 2.67 0 0 1 1.072-1.509c.344-.225.612-.24.631-.195zm-2.733 33.51a3.65 3.65 0 0 0-1.162 1.842c-.173.744-.013 1.526.438 2.143a2.25 2.25 0 0 0 2.43.649c.888-.223 1.559-.953 1.706-1.857.047-.761-.24-1.505-.785-2.038a3.71 3.71 0 0 0-1.962-.936 1.1 1.1 0 0 1 .649-.166c.626.035 1.221.28 1.691.694.748.613 1.167 1.54 1.132 2.506a2.93 2.93 0 0 1-2.219 2.536 2.9 2.9 0 0 1-3.215-.951 3.02 3.02 0 0 1-.408-2.717 2.67 2.67 0 0 1 1.072-1.509 1.42 1.42 0 0 1 .633-.196zm-3.322 32.377c.091.121-.86.5-1.147 1.857-.169.742-.015 1.521.423 2.143.615.681 1.577.931 2.445.634a2.26 2.26 0 0 0 1.706-1.841 2.64 2.64 0 0 0-.785-2.053 3.59 3.59 0 0 0-1.977-.921 1.1 1.1 0 0 1 .649-.166 2.85 2.85 0 0 1 1.706.679 3.01 3.01 0 1 1-4.709 1.374 2.73 2.73 0 0 1 1.057-1.509c.362-.212.618-.227.632-.197zm-2.655 37.056c.076.121-.875.5-1.162 1.857-.173.744-.013 1.526.438 2.143a2.28 2.28 0 0 0 2.43.634 2.22 2.22 0 0 0 1.706-1.842 2.6 2.6 0 0 0-.785-2.053 3.61 3.61 0 0 0-1.962-.921 1.1 1.1 0 0 1 .649-.166c.624.031 1.219.27 1.691.679.745.622 1.162 1.551 1.132 2.521a3.11 3.11 0 0 1-5.434 1.585 3.17 3.17 0 0 1-.408-2.732 2.82 2.82 0 0 1 1.072-1.509 1.42 1.42 0 0 1 .633-.196z"/></g><g class="B"><path d="M-4936.172 644.948c.166.2 0 .74-.755 1.4-1.09.924-2.438 1.489-3.861 1.619-2.242.238-4.483-.455-6.2-1.917-2.179-1.81-3.385-4.536-3.26-7.366a16.92 16.92 0 0 1 2.325-6.989 47.02 47.02 0 0 1 2.868-4.74c1.811-2.6 3.26-3.97 3.713-3.683s-.136 2.158-1.268 5l-2.038 4.966a18.37 18.37 0 0 0-1.675 5.63 6.04 6.04 0 0 0 1.766 4.528 6.19 6.19 0 0 0 3.728 1.826c2.604.269 4.31-.742 4.657-.274zm-49.192 6.943c-4.528-5.841-9.343-13.3-11.441-20.362a30.91 30.91 0 0 1 .921-21.6c3.623-7.834 11.336-13.343 19.623-15.5a29.36 29.36 0 0 1 21.238 2.068 21.13 21.13 0 0 1 11.275 17.525"/><path d="M-4960.383 598.125c1.826-.181 10.143 1.8 14.717 5.011a18.31 18.31 0 0 1 7.713 16.679c-.423 3.547-4.075 8.377-5.54 11.125a109.52 109.52 0 0 1-7.925 12.649"/></g><path d="M-4985.772 623.544a20.41 20.41 0 0 1 21.449-19.97c10.929.802 19.367 9.933 19.306 20.891a213.53 213.53 0 0 1-.664 22.642c-1.645 10.34-8.3 13.494-10.928 14.34-.928.194-1.875.29-2.823.287h0l-.076.075.574 12.226c-.106 7.955-5.464 14.264-13.4 14.264s-13.208-6.868-13.268-14.853z" class="D"/><g class="B"><path d="M-4949.787 629.038c.01.903-.698 1.651-1.6 1.691a1.6 1.6 0 0 1-1.721-1.509 1.66 1.66 0 0 1 1.6-1.675 1.6 1.6 0 0 1 1.721 1.494zm2.022-2.113c-.211.211-1.509-.725-3.26-.709s-3.109.891-3.291.679.106-.5.679-.906a4.53 4.53 0 0 1 2.641-.815 4.34 4.34 0 0 1 2.6.83c.541.423.737.815.631.921zm-19.23 2.113c.01.903-.698 1.651-1.6 1.691a1.6 1.6 0 0 1-1.721-1.509 1.66 1.66 0 0 1 1.615-1.675 1.59 1.59 0 0 1 1.168.388 1.58 1.58 0 0 1 .538 1.106zm1.615-1.781c-.2.211-1.509-.725-3.245-.709s-3.109.891-3.306.679.106-.483.694-.906a4.53 4.53 0 0 1 2.626-.815 4.41 4.41 0 0 1 2.6.83c.556.423.737.815.631.921zm6.506 13.283a12.25 12.25 0 0 1 2.91-.528c.453 0 .891-.136.966-.453a2.4 2.4 0 0 0-.3-1.343l-1.359-3.487a61.17 61.17 0 0 1-3.019-9.057c1.486 2.844 2.742 5.801 3.758 8.845l1.3 3.5c.29.553.375 1.19.242 1.8a1.19 1.19 0 0 1-.755.679c-.251.068-.51.104-.77.106-.99.105-1.989.084-2.973-.062z"/></g><g class="E"><path d="M-4959.445 661.763s-6.913.574-15.577-4.634c0 0 2.732 9.147 15.728 7.925zm-.184-16.906c-.698-.869-1.793-1.319-2.9-1.192a3.02 3.02 0 0 0-2.038 1.087 1.87 1.87 0 0 0-.136 2.128c.589.661 1.521.898 2.355.6a6.82 6.82 0 0 0 2.279-1.374 1.9 1.9 0 0 0 .513-.528.59.59 0 0 0 0-.664"/></g><g class="B"><path d="M-4964.142 641.778c.287 0 .287 1.932 1.962 3.306s3.728 1.177 3.743 1.509-.453.377-1.328.392a4.86 4.86 0 0 1-3.14-1.087 4.2 4.2 0 0 1-1.509-2.777c-.075-.875.136-1.358.272-1.343zm-.423-17.661c-.181.483-1.962.257-4.076.513s-3.789.83-4.075.392c-.121-.211.166-.679.86-1.147a7.11 7.11 0 0 1 6.2-.679c.774.303 1.166.695 1.091.921z"/><path d="M-4948.429 623.257c-.3.408-1.509 0-3.019 0s-2.732.272-3.019-.151 0-.619.619-1a4.15 4.15 0 0 1 2.46-.679 4.21 4.21 0 0 1 2.415.83c.514.381.695.804.544 1zm-39.487 6.807c7.2 1.781 14.34-1.6 20.181-6.325a27.92 27.92 0 0 0 9.917-20.2c0-1.585.211-5.087-1.313-5.419-3.2-.709-3.608-.589-5.63 0-6.038 1.675-17.177 2.762-21.011 8.091s-4.619 14.009-4.619 20.789m45.842-4.921c.438-.077.872-.177 1.3-.3a6.99 6.99 0 0 0 3.019-1.9c1.243-1.281 1.991-2.96 2.113-4.74.152-2.179-.375-4.352-1.509-6.219a15.53 15.53 0 0 0-4.534-4.67 27.38 27.38 0 0 0-4.694-2.566l-3.351-1.374-.921-.362a1.4 1.4 0 0 1-.317-.151.95.95 0 0 1 .332.091l.951.3 3.4 1.283a26.98 26.98 0 0 1 4.77 2.536 15.59 15.59 0 0 1 4.619 4.74c1.166 1.928 1.695 4.174 1.511 6.419a7.82 7.82 0 0 1-2.234 4.875 7 7 0 0 1-3.125 1.857 4.2 4.2 0 0 1-1.33.181z"/></g><g class="F"><path d="M-4997.289 614.578a13.62 13.62 0 0 0 1.509 1.057 10.7 10.7 0 0 0 4.649 1.509 15.1 15.1 0 0 0 7.155-1.208c2.777-1.21 5.435-2.675 7.94-4.377a46.79 46.79 0 0 0 7.2-5.509 23.29 23.29 0 0 0 7-12.075 6.11 6.11 0 0 1-.2 1.857 17.93 17.93 0 0 1-1.751 4.77 24.49 24.49 0 0 1-4.528 6.038c-2.223 2.133-4.662 4.029-7.276 5.66a48.16 48.16 0 0 1-8.091 4.392 15.35 15.35 0 0 1-7.547 1.087 10.46 10.46 0 0 1-4.77-1.781 8.05 8.05 0 0 1-1.042-.921 3.41 3.41 0 0 1-.248-.499zm16.045-17.178a64.35 64.35 0 0 0-8.151 5.675 64.28 64.28 0 0 0-6.611 7.411 8.9 8.9 0 0 1 1.389-2.626c2.674-3.973 6.308-7.207 10.566-9.4.864-.521 1.815-.88 2.807-1.06z"/></g><path d="M-4983.115 631.015a4.86 4.86 0 0 0-5.283.709 5.01 5.01 0 0 0 .906 7.879 4.27 4.27 0 0 0 3.23 1.026" class="D"/><path d="M-4984.761 637.461c0 .091-.392.408-1.192.3-.47-.066-.907-.275-1.253-.6-.427-.394-.696-.931-.755-1.509-.05-.599.122-1.195.483-1.675.286-.377.681-.656 1.132-.8.77-.242 1.253 0 1.223.091s-.453.106-1.011.423c-.694.37-1.104 1.116-1.042 1.9s.595 1.45 1.343 1.691c.604.149 1.042.073 1.072.179z" class="E"/><g class="F"><path d="M-4983.84 654.019c0 .226-1.177.709-3.487.543a14.07 14.07 0 0 1-8.649-4.392c-1.64-1.718-2.8-3.836-3.366-6.143a14.55 14.55 0 0 1 .423-8.075c.957-2.914 2.772-5.472 5.208-7.336a20.06 20.06 0 0 1 8.755-3.351c2.724-.369 5.405-1.011 8-1.917 6.344-2.45 11.44-7.344 14.143-13.585a30.38 30.38 0 0 0 2.219-8.453c.242-2.1.3-3.306.589-3.336s.724 1.117.951 3.351a23.76 23.76 0 0 1-1.162 9.419 25.96 25.96 0 0 1-8 11.789 27.05 27.05 0 0 1-7.321 4.423c-2.803 1.049-5.714 1.783-8.679 2.189a17.25 17.25 0 0 0-7.2 2.6 11.88 11.88 0 0 0-4.091 5.449 11.67 11.67 0 0 0-.649 6.189 11.5 11.5 0 0 0 2.279 5.011 14.25 14.25 0 0 0 6.853 4.694c1.944.569 3.169.63 3.184.931z"/><path d="M-4998.994 622.291c0-.559 3.019-.921 7.653-1.509s11.079-1.509 17.162-4.528c2.825-1.431 5.355-3.382 7.457-5.751 1.687-1.951 2.997-4.197 3.864-6.626 1.509-4.2 1.026-7.17 1.63-7.275.242 0 .709.619 1.042 1.992a14.3 14.3 0 0 1 0 6.038 20.33 20.33 0 0 1-3.728 8.181 25.19 25.19 0 0 1-8.469 6.957c-3.222 1.633-6.68 2.748-10.249 3.306-2.839.454-5.715.641-8.589.558-4.845-.196-7.773-.815-7.773-1.343z"/></g><path d="M-4983.93 736.752l-4.181 51.97c-.095 1.124.294 2.235 1.069 3.053s1.864 1.268 2.991 1.234l38.913-1.057c1.993-.051 3.637-1.578 3.834-3.562l5.343-50.9a3.97 3.97 0 0 0-3.94-4.377h-40.089c-2.061.001-3.775 1.585-3.94 3.639z" fill="#555b7b"/><path d="M-4957.349 741.31c-.007 1.108-.795 2.057-1.882 2.268s-2.173-.375-2.593-1.4-.06-2.204.862-2.818 2.149-.492 2.933.291a2.34 2.34 0 0 1 .681 1.659z" class="H"/><path d="M-4984.519 756.51s-5.328 1.509-6.264 2.566c-1.381 1.053-2.868 1.958-4.438 2.7l-4 1.072-5.6 16.892 33.947 1.087s9.358-6.642 8.181-7.366-4.785-.121-6.355 1.509c-2.475 2.551-6.506-1.026-6.506-1.026s16.845-3.441 18.249-5.162 3.019-1.962 2.113-3.683-7.94-.694-10.309-.694a64.91 64.91 0 0 0-7.713.981l11.321-4.151c2.113-1.147-.091-3.472-2.943-2.792-2.551.6-12.075 4-13.766 3.759s-6.038-.74-6.038-.74z" class="D"/><path d="M-4949.104 685.422c9.759-6.36 25.148-3.2 17.025-59.091-5.15-35.438-32.475-40.117-51.122-30.251-10.468 5.538-15.815 14.588-20.61 34.314s-10.44 48.382 3.495 56.29 45.762 9.4 53.812-6.724-17.311-6.81-17.311-6.81-14.694 9.389-21.95-3.67-4.863-51.817 4.587-59.841 12.556-17.818 32.635-6.725 6.942 53.392 2.039 62.979-52.588 24.388-57.306 14.066-18.341.063-19.45 6.724c23.774 12.236 72.168 31.202 74.156-1.261z" fill="url(#D)"/><path d="M-5001.428 681.751c13.145 9.009 23.175 13.874 37.1 9.508 7.765-2.326 15.245-5.515 22.3-9.508 0 0-28.405 15.142-59.4 0z" fill="#fff" opacity=".4"/><path d="M-4624.302 637.188a2.95 2.95 0 0 1-2.411 2.411c-1.2.3-2.438.189-3.65.391-3.6.633-6.276 4.04-9.913 4.5-.5 0-1.145 0-1.347-.5s.2-.889.552-1.212l8.741-8.377" class="D"/><g class="E"><path d="M-4632.288 634.4c-.375.229-.723.501-1.037.808l-2.694 2.4-3.879 3.6-1.118 1.051a2.17 2.17 0 0 0-.983 1.522 1.01 1.01 0 0 0 .66.943 2.09 2.09 0 0 0 .983.121 8.59 8.59 0 0 0 1.737-.418 46.53 46.53 0 0 0 5.68-3.185 8.9 8.9 0 0 1 2.559-.956c.835-.162 1.657-.175 2.424-.256 1.264-.011 2.459-.583 3.259-1.562.314-.373.443-.868.35-1.347a3.76 3.76 0 0 1-.566 1.118 4.12 4.12 0 0 1-3.084 1.239l-2.478.175a9.55 9.55 0 0 0-2.694.956 53.2 53.2 0 0 1-5.643 3.084c-.505.187-1.029.318-1.562.391-.5 0-.943-.108-.9-.377a2.48 2.48 0 0 1 .768-1.037l1.1-1.064 3.771-3.717 2.505-2.546.842-.943z"/><path d="M-4630.444 647.99a2.06 2.06 0 0 1 .337-1.01c.463-.815 1.183-1.454 2.047-1.818v.391a12.9 12.9 0 0 1-1.347-.687c-1.576-.822-2.888-2.073-3.784-3.609 1.221 1.225 2.577 2.309 4.04 3.232.434.254.884.479 1.347.673l.458.215-.471.175a4.51 4.51 0 0 0-1.98 1.562c-.458.526-.579.902-.647.876z"/></g><path d="M-4527.047 995.939l-2.2 27.65s-27.314 8.781-27.475 13.9l53.442.7 1.576-42.3z" class="C"/><g class="G"><path d="M-4512.771 1020.778a2.2 2.2 0 0 1 1.589 2.451c-.26 1.082-1.314 1.776-2.411 1.589a2.3 2.3 0 0 1-1.724-2.6 2.17 2.17 0 0 1 2.694-1.347m9.348 17.322l-.108-4.283-50.614.31s-2.9 1.724-2.815 3.394z"/></g><g class="B"><path d="M-4530.131 1023.296c0 .256 1.347.337 2.694 1.145s2.034 1.872 2.263 1.764-.189-1.616-1.791-2.559-3.166-.538-3.166-.35zm-5.523 2.547c0 .256 1.091.66 2.007 1.737s1.212 2.236 1.482 2.222.377-1.509-.795-2.828-2.694-1.387-2.694-1.131zm-2.99 6.801c.242 0 .566-1.266-.148-2.694s-1.953-1.939-2.047-1.71.673.956 1.239 2.128.701 2.262.956 2.276zm8.808-15.61c.121.229 1.347-.162 2.788-.108s2.694.485 2.774.256-1.01-1.131-2.694-1.172-3.002.822-2.868 1.024zm-.295-5.562c.889.219 1.822.186 2.694-.094a11.73 11.73 0 0 0 2.788-.943 12.3 12.3 0 0 0 1.508-.862c.295-.181.562-.404.794-.66.292-.402.292-.945 0-1.347a1.43 1.43 0 0 0-1.158-.566c-.34.009-.677.068-1 .175-.569.158-1.124.365-1.657.62-.891.431-1.706 1.005-2.411 1.7-1.212 1.185-1.6 2.168-1.508 2.222s.7-.754 1.926-1.751a11.23 11.23 0 0 1 2.357-1.414 10.08 10.08 0 0 1 1.522-.512c.552-.175 1.037-.189 1.2 0s0 .135 0 .31a3.21 3.21 0 0 1-.579.471c-.431.31-.881.593-1.347.848a14.37 14.37 0 0 1-2.559 1.077 19.41 19.41 0 0 0-2.573.727z"/><path d="M-4529.741 1011.835a4.27 4.27 0 0 0 .62-2.613c.02-.993-.13-1.981-.444-2.923-.199-.554-.447-1.09-.741-1.6a2.2 2.2 0 0 0-1.751-1.347c-.486.021-.915.327-1.091.781-.125.315-.206.646-.242.983-.095.596-.095 1.204 0 1.8a6.2 6.2 0 0 0 1.226 2.694c1.091 1.347 2.182 1.63 2.209 1.549-.633-.576-1.198-1.222-1.684-1.926-.488-.753-.806-1.603-.929-2.492-.067-.514-.067-1.035 0-1.549 0-.566.269-1.037.485-.983.408.168.749.466.97.848a9.96 9.96 0 0 1 .7 1.428 10.09 10.09 0 0 1 .606 2.694c.174 1.632-.082 2.616.066 2.656z"/></g><path d="M-4411.49 991.336l6.168 32.324 12.256 24.135c.421.831.479 1.8.16 2.675s-.987 1.58-1.844 1.945h0a3.34 3.34 0 0 1-3.084-.229c-5.913-3.65-27.61-17.172-27.933-19.569-.364-2.694-8.781-33.671-8.781-33.671z" class="C"/><g class="G"><path d="M-4394.748 1052.388l-31.489-21.967.3 1.347a5.05 5.05 0 0 0 1.872 2.963c2.559 1.966 9.737 7.219 26.142 17.441a3.37 3.37 0 0 0 3.179.2zm-27.099-31.434a2.02 2.02 0 0 1 1.1 2.478c-.388.967-1.467 1.459-2.451 1.118-1.032-.456-1.537-1.631-1.158-2.694a2.05 2.05 0 0 1 2.693-.875"/></g><g class="B"><path d="M-4405.12 1039.93a10.28 10.28 0 0 1 2.276-3.111 10.77 10.77 0 0 1 3.556-1.508c0-.081-.458-.242-1.226-.189-1.014.103-1.977.495-2.774 1.131a5.2 5.2 0 0 0-1.737 2.438c-.233.768-.176 1.226-.095 1.239zm3.22 3.812c.175.108.983-1.158 2.545-1.993a28.72 28.72 0 0 1 3.044-1.091 3.77 3.77 0 0 0-3.394.458c-1.778.956-2.384 2.572-2.195 2.626zm-8.674-8.418a34.16 34.16 0 0 1 3.73-3.342 33.66 33.66 0 0 1 4.525-2.141 9.2 9.2 0 0 0-8.256 5.482zm-2.694-9.66c.121.175 1.737-.943 4.041-1.535s4.242-.418 4.269-.633a8.42 8.42 0 0 0-8.31 2.168zm-2.047-9.425a16.17 16.17 0 0 1 4.148-1.714 17.13 17.13 0 0 1 4.5.148c-.339-.34-.769-.574-1.239-.673-2.227-.663-4.637-.228-6.492 1.172-.688.542-.984 1-.917 1.067zm3.704-3.487c-.021-.416-.093-.828-.215-1.226a8.36 8.36 0 0 0-1.643-2.977 3.88 3.88 0 0 0-1.993-1.441c-.556-.12-1.128.122-1.428.606a2.2 2.2 0 0 0-.2 1.562 4.77 4.77 0 0 0 5.01 3.434c2.226-.251 4.082-1.819 4.7-3.973.168-.536.1-1.118-.189-1.6a1.35 1.35 0 0 0-1.508-.391 4.75 4.75 0 0 0-1.872 1.549 9.71 9.71 0 0 0-1.657 2.976c-.17.381-.257.794-.256 1.212a15.55 15.55 0 0 1 2.3-3.852 4.31 4.31 0 0 1 1.67-1.347.73.73 0 0 1 .822.216c.173.323.207.702.094 1.051a4.93 4.93 0 0 1-4.041 3.381 4.12 4.12 0 0 1-4.283-2.842 1.59 1.59 0 0 1 .081-1.1c.163-.267.473-.406.781-.35a3.47 3.47 0 0 1 1.71 1.2c.939 1.166 1.656 2.494 2.115 3.919z"/><path d="M-4527.438 741.81c-.337 0-4.431 270.914-4.431 270.914l32.741-1.131 11.327-133.2 2.694-97.78 22.317 90.493 27.785 141.942 32.688-8.2-41.618-264.762-39.165-7.569zm71.179-167.343c3.919-7.731 5.145-21.63.66-29.32s-13.589-13.253-22.128-15.785a7.45 7.45 0 0 0-4.391-.269c-1.488.42-2.394 1.922-2.074 3.434-1.614-1.318-3.434-2.36-5.387-3.084a6.37 6.37 0 0 0-5.886.835 3.88 3.88 0 0 0-.566 5.468c-2.423-1.042-5.231-.574-7.185 1.198s-2.693 4.521-1.892 7.034a21.55 21.55 0 0 0 4.35 6.855c1.7 1.8 1.859 3.556 1.347 5.993"/></g><path d="M-4488.541 638.184c.242-3.717.848-37.307.835-37.455s-12.472-1.549-13.01-13.953c-.256-5.993.215-18.371.768-29.563.59-12.026 10.309-21.588 22.344-21.98h1.2c12.93.35 19.852 11.529 19.138 24.445l-1.764 71.88" class="D"/><path d="M-4487.707 600.73c5.733-.193 11.29-2.026 16.014-5.28 0 0-3.731 7.758-16.162 7.03z" class="E"/><g class="B"><path d="M-4497.808 565.591a1.79 1.79 0 0 0 1.764 1.737 1.7 1.7 0 0 0 1.778-1.657 1.75 1.75 0 0 0-1.764-1.737 1.7 1.7 0 0 0-1.778 1.657zm.715-2.385c.229.215 1.535-.822 3.448-.875s3.327.862 3.529.62-.135-.512-.768-.943a4.88 4.88 0 0 0-2.828-.781c-.979.038-1.921.382-2.694.983-.62.471-.795.889-.687.996zm18.329 2.654a1.78 1.78 0 0 0 1.764 1.737c.458.026.907-.136 1.243-.449a1.68 1.68 0 0 0 .535-1.208 1.78 1.78 0 0 0-1.764-1.737c-.947-.03-1.742.71-1.778 1.657zm.418-2.881c.229.215 1.549-.822 3.448-.875s3.34.862 3.529.62-.135-.512-.754-.943a4.95 4.95 0 0 0-2.842-.781 4.73 4.73 0 0 0-2.694.983c-.606.47-.794.888-.687.996zm-6.478 14.356a11.69 11.69 0 0 0-3.111-.471c-.485 0-.956-.121-1.051-.444a2.56 2.56 0 0 1 .283-1.455l1.347-3.744c1.845-5.387 3.152-9.738 2.936-9.8s-1.872 4.2-3.717 9.536l-1.253 3.771a2.8 2.8 0 0 0-.2 1.926 1.25 1.25 0 0 0 .822.687 3.22 3.22 0 0 0 .835.081 12.27 12.27 0 0 0 3.111-.081zm5.656 1.145c-.31 0-.256 2.061-1.98 3.583s-3.933 1.347-3.946 1.657.512.377 1.441.377a5.21 5.21 0 0 0 3.354-1.212 4.54 4.54 0 0 0 1.522-3c0-.92-.257-1.435-.391-1.405zm.095-22.964c.216.512 2.1.2 4.35.4s4.04.754 4.35.283c.135-.229-.2-.7-.943-1.185a7.38 7.38 0 0 0-3.259-1.024 7.28 7.28 0 0 0-3.367.5c-.808.366-1.212.784-1.131 1.026zm-17.495 2.142c.35.431 1.657 0 3.232-.135s2.923.2 3.219-.256c.121-.229-.094-.66-.7-1.051a4.54 4.54 0 0 0-2.694-.633 4.42 4.42 0 0 0-2.546.956c-.498.459-.66.917-.511 1.119z"/></g><path d="M-4457.955 568.864c.215-.094 8.445-2.788 8.445 5.711s-8.525 6.734-8.552 6.492.107-12.203.107-12.203z" class="D"/><path d="M-4455.464 577.851a2.2 2.2 0 0 0 .4.215 1.44 1.44 0 0 0 1.1 0c1.119-.708 1.769-1.964 1.7-3.286.014-.727-.128-1.448-.417-2.115a1.71 1.71 0 0 0-1.1-1.131.74.74 0 0 0-.875.4c-.121.229 0 .4-.108.418s-.175-.148-.108-.5c.046-.206.16-.391.323-.525a1.13 1.13 0 0 1 .822-.215c.72.139 1.311.653 1.549 1.347.362.732.538 1.541.512 2.357.081 1.55-.773 2.998-2.168 3.677a1.59 1.59 0 0 1-1.347-.229c-.27-.213-.31-.403-.283-.413z" class="E"/><path d="M-4505.367 541.133c-1 11 12.566 15.6 18.519 9.428 2.694-2.842 5.145-6.4 8.889-7.677a10.1 10.1 0 0 1 7.744.808h0c3.5 1.818 5.562 5.872 6.115 9.778.754 5.387-.121 10.236 1.347 15.233.125.741.495 1.419 1.051 1.926 1.175.567 2.589.21 3.353-.848 1.241-1.619 1.981-3.565 2.128-5.6a34.76 34.76 0 0 0-.512-13.751c-1.094-4.524-3.494-8.628-6.9-11.8-4.415-3.823-10.141-5.783-15.973-5.468a27.73 27.73 0 0 0-15.852 6.222 16.27 16.27 0 0 0-5.024 6.168" class="B"/><g class="F"><path d="M-4496.381 535.113a2.53 2.53 0 0 0-1.172 0 5.88 5.88 0 0 0-2.8 1.562c-1.164 1.145-1.909 2.649-2.115 4.269-.16 2.003.42 3.995 1.63 5.6a10.78 10.78 0 0 0 4.593 3.583 14.4 14.4 0 0 0 4.633 1.024 17.16 17.16 0 0 0 3.179-.094 3.84 3.84 0 0 0 1.145-.229c0-.121-1.656.108-4.283-.135-1.525-.148-3.018-.525-4.431-1.118a10.4 10.4 0 0 1-4.31-3.421 7.69 7.69 0 0 1-1.535-5.024 6.9 6.9 0 0 1 1.832-4.04c.696-.754 1.572-1.319 2.545-1.643.685-.254 1.103-.267 1.089-.334zm5.685-3.88c-.277-.048-.562-.001-.808.135-.694.379-1.187 1.044-1.347 1.818-.17 1.124.059 2.272.646 3.246.614 1.187 1.394 2.28 2.317 3.246a14.83 14.83 0 0 0 6.074 3.852 6.87 6.87 0 0 0 2.936.5c0-.121-1.1-.256-2.774-.929a16.16 16.16 0 0 1-5.751-3.865 15 15 0 0 1-2.276-3.084 4.71 4.71 0 0 1-.727-2.882c.113-.668.473-1.27 1.01-1.684.417-.272.713-.299.7-.353z"/></g><path d="M-4564.623 641.188l-58.439-5.535-9.239-2.222-23.1-4.4c-2.29-.714-3.192.215-3.394 1.077-.323 1.347 1.01 2.788 2.949 3.461.673.242 11.435 3.5 11.435 3.5a27.26 27.26 0 0 0-3.542 1.172c-2.505.956-4.822 4.337-5.886 8.2s-1.024 5.037.458 5.522a1.94 1.94 0 0 0 1.67-.3c.829-.512 1.438-1.313 1.71-2.249 1.8-6.168 5.589-6.8 5.589-6.8l1.212.3s-3.825 2.9-3.623 6.209a3.77 3.77 0 0 0 .364 1.347 5.01 5.01 0 0 0 5.886 6.492c.835-.175 1.71-.7 1.8-1.549.007-.469-.104-.932-.323-1.347-.096-.217-.173-.442-.229-.673l3.5.337s7.906.35 11.327.889l55.045 14.236a14.09 14.09 0 0 0 17.239-10.357h0a14.1 14.1 0 0 0-12.418-17.307z" class="D"/><path d="M-4563.587 669.741l38.088-8.741-1.939 70.426c0 .66-3.138 1.751-2.869 6.828l2.694 6.02 83.5 1.118 2.263-67.8 7.623-52.526-17.509-10.842-6.168-8.445-24.081 25.4-5.993-21.684.175-6.451-5.953 6.465-32.12 9.267-42.439 19.785-28.687-2.2-7.448 25.1z" class="C"/><g class="B"><path d="M-4485.31 623.397a3.84 3.84 0 0 0-1.724 1.926 7.64 7.64 0 0 0-.525 2.936 11.37 11.37 0 0 1-.566 4.04l-.3.687-.3-.687a37.79 37.79 0 0 1-1.886-6.182c-1.01-4.364-1.67-8.364-2.1-11.246a28.96 28.96 0 0 1-.5-4.727 37.22 37.22 0 0 1 1 4.633l2.29 11.179a41.92 41.92 0 0 0 1.778 6.074h-.579a11.32 11.32 0 0 0 .62-3.758 7.76 7.76 0 0 1 .7-3.071 3.5 3.5 0 0 1 1.347-1.535 1.35 1.35 0 0 1 .745-.269zm30.91-10.64a5.78 5.78 0 0 1-.808 1.172l-2.424 3.017-8.189 9.8-5.145 5.966-.4.458-.135-.579-1.724-7.138c-.162-.875-.646-1.347-1.118-1.347a.97.97 0 0 0-.647.175s.094-.35.647-.377c.334-.01.657.123.889.364.286.312.489.69.593 1.1l1.966 7.084-.552-.121 5.091-6.047 8.35-9.67 2.586-2.882c.62-.673.98-1.016 1.02-.975zm-35.516 111.544a3.95 3.95 0 0 1-.081-.9v-2.6-9.522c.081-8.081.471-19.165 1.347-31.421s2.209-23.3 3.313-31.273l1.347-9.428.444-2.559a4.9 4.9 0 0 1 .2-.875 4.55 4.55 0 0 1 0 .9l-.31 2.572-1.2 9.428c-.97 7.987-2.168 19.031-3.1 31.273s-1.347 23.341-1.589 31.368l-.229 9.535c0 1.064 0 1.913-.067 2.586a6.74 6.74 0 0 1-.081.916zm-6.801 16.337a15.98 15.98 0 0 1-.633-5.993c-.041-2.016.194-4.028.7-5.98a31.52 31.52 0 0 1 0 5.993l-.067 5.98z"/><path d="M-4462.507 721.042a17.07 17.07 0 0 1-2.141.808l-5.98 1.859c-6.622 1.895-13.338 3.441-20.122 4.633a193.78 193.78 0 0 1-20.526 2.586c-2.626.175-4.768.283-6.249.31a13.74 13.74 0 0 1-2.29 0 15.2 15.2 0 0 1 2.276-.242l6.222-.539c5.253-.485 12.5-1.347 20.418-2.694s15.017-3.111 20.108-4.458l6.034-1.657a13.17 13.17 0 0 1 2.249-.606zm-63.411-45.375c-.189 0-.31-9.9-.269-22.128s.229-22.128.431-22.115.31 9.9.269 22.128-.231 22.115-.431 22.115z"/></g><path d="M-4435.773 624.043s10.519 9.024 11.219 14.142c.525 3.946 10.883 41.051 15.542 57.671 1.456 5.175 1.144 10.687-.889 15.664l-13.468 33.263-21.751-12.873 10.88-31.192-9.01-26.479z" class="C"/><path d="M-4423.342 744.786a1.7 1.7 0 0 1-.4-.2l-1.158-.633-4.4-2.519-15.973-9.28-.2-.121.081-.2 10.775-31.233v.229l-3.96-10.64-9-24.243h0c-2.761-5.778-5.145-11.367-5.8-16.728a23.62 23.62 0 0 1 .215-7.529 22.65 22.65 0 0 1 2.182-6.047 25.17 25.17 0 0 1 5.63-7.084 22.55 22.55 0 0 1 1.885-1.508 4.2 4.2 0 0 1 .7-.444 4.16 4.16 0 0 1-.633.539 27.9 27.9 0 0 0-1.818 1.562c-2.193 2.046-4.016 4.457-5.387 7.125-.978 1.872-1.677 3.878-2.074 5.953a23.09 23.09 0 0 0-.148 7.367c.687 5.239 3.071 10.775 5.859 16.526h0l9.051 24.243 3.96 10.653v.229l-10.95 31.179-.121-.323 15.8 9.428 4.337 2.694 1.118.7c.308.197.443.292.429.305z" class="B"/><path d="M-4479.41 628.919c1.495-.049 2.829.93 3.232 2.37.269 1.455.067 2.963.444 4.391s1.684 2.828 3.125 2.519a3.84 3.84 0 0 0 2.061-1.616 50.05 50.05 0 0 0 6.734-12.512c0 .094-7.461 8.566-7.461 8.566a25.09 25.09 0 0 0-1.67-6.236c-.256-.647-.539-1.737-1.158-2.034-1.01-.458-2.357 1.024-3.03 1.912a16.74 16.74 0 0 1-2.33 2.505m-12.108-7.542a43.34 43.34 0 0 0 2.694 13.845c.143.456.392.871.727 1.212a1.13 1.13 0 0 0 1.347.189 16.45 16.45 0 0 0 1.347-2.869c.687-1.926 3.488-2.1 3.488-2.1a50.7 50.7 0 0 0-1.832-6.411 1.79 1.79 0 0 0-1.737-1.118 2.9 2.9 0 0 0-1.912 2.2c-.418 3.461-.364 5.037-.875 6.249-1.347-3.677-2.37-8.081-3.232-11.327m20.684 102.152c.643-.459 1.074-1.157 1.196-1.938s-.076-1.577-.549-2.21a4.51 4.51 0 0 0-4.216-1.6 9.43 9.43 0 0 0-4.256 1.912l-3.8 2.815c-3.3 2.02-7.313 2.492-11.192 2.546a66.59 66.59 0 0 0-11.6.525c-3.8.727-7.6 2.694-9.428 6.1-.044-.002 33.071-2.399 43.845-8.15z"/><path d="M-4449.322 771.912c-3.538-2.277-6.506-5.337-8.674-8.943.042-.096.042-.204 0-.3a.54.54 0 0 0-.337-.2c-.931-1.43-1.777-2.914-2.532-4.445 2.694-1.751 6.236-4.418 2.4-4.956-4.728-.673-8.081-2.976-8.593-4.229a1.5 1.5 0 0 1 2.33-1.589 17.8 17.8 0 0 0 4.552 1.576 11.66 11.66 0 0 0 3.865.242c.795-.094 3.609-2.02 6.626-3.434a2.3 2.3 0 0 1 1.347-.189l1.145-.081a3.53 3.53 0 0 0 2.923-1.912l4.377-8.4 13.2 7.812-10.451 14.492c-3.791 5.07-7.856 9.93-12.175 14.559z" class="D"/><g class="F"><path d="M-4446.547 773.419c-1.086-.307-2.114-.79-3.044-1.428a27.42 27.42 0 0 1-6.249-5.2 27.72 27.72 0 0 1-4.472-6.734 11.11 11.11 0 0 1-1.091-3.192 35.33 35.33 0 0 0 14.815 16.606zm-41.577 8.499a1.05 1.05 0 0 1-.377-.108 4.55 4.55 0 0 1-.929-.606 7.7 7.7 0 0 1-2.155-3.421 54.92 54.92 0 0 1-1.468-5.764l-1.481-7.111c-1-5.051-1.751-9.657-2.236-13-.242-1.67-.417-3.03-.512-3.96-.088-.484-.12-.977-.094-1.468a5.39 5.39 0 0 1 .364 1.347l.727 3.933 2.438 12.943 1.428 7.111a46.08 46.08 0 0 0 1.347 5.738 8.27 8.27 0 0 0 1.859 3.381 11.52 11.52 0 0 0 1.089.985zm-1.131-30.239a1.17 1.17 0 0 1 .593 0 2.29 2.29 0 0 1 1.239 1.091 2.32 2.32 0 0 1-.135 2.465c-.633.905-1.754 1.331-2.828 1.077a2.84 2.84 0 0 1-1.98-2.29c-.108-.864.208-1.727.849-2.317 1.118-.956 2.128-.673 2.074-.619a4.27 4.27 0 0 0-1.724.97 2.14 2.14 0 0 0-.552 1.859 2.21 2.21 0 0 0 1.522 1.711 2.13 2.13 0 0 0 2.128-.768 1.87 1.87 0 0 0 .2-1.872c-.511-1.088-1.443-1.207-1.386-1.307zm-28.633-5.411c.322 1 .441 2.054.35 3.1a16.66 16.66 0 0 1-6.963 12.943c-.83.631-1.778 1.089-2.788 1.347 0-.108 1.01-.633 2.492-1.8a18.28 18.28 0 0 0 6.734-12.579c.202-1.812.054-2.998.175-3.011z"/></g><g class="B"><path d="M-4570.159 651.777a46.22 46.22 0 0 1 .687-6.734 47.14 47.14 0 0 1 .97-6.653 25.01 25.01 0 0 1-.283 6.734 25.59 25.59 0 0 1-1.374 6.653zm-26.843-15.384a1.83 1.83 0 0 1-.094.471l-.35 1.347-1.428 5.118-5.333 18.249-.215-.377c7.61 1.886 16.781 3.421 26.573 5.226 4.876.916 9.576 1.9 13.913 2.977h-.148l27.314-6.182 7.96-1.724 2.128-.444c.245-.07.499-.106.754-.108-.236.095-.479.172-.727.229l-2.1.539-7.865 1.98-27.26 6.424h-.162c-4.323-1.064-9.01-2.034-13.886-2.936-9.765-1.8-18.963-3.381-26.586-5.387l-.31-.067.094-.31 5.522-18.169 1.589-5.064q.256-.808.444-1.347c.045-.153.103-.302.173-.445z"/></g></g></svg>